<svg width="20.000000" height="20.000000" viewBox="0 0 20 20" fill="none" xmlns="http://www.w3.org/2000/svg" xmlns:xlink="http://www.w3.org/1999/xlink">
	<desc>
			Created with Pixso.
	</desc>
	<defs>
		<clipPath id="clip4_175">
			<rect id="Ресурс 1 1" width="20.000000" height="20.000000" fill="white" fill-opacity="0"/>
		</clipPath>
		<clipPath id="clip4_174">
			<rect id="Frame 19" width="20.000000" height="20.000000" fill="white" fill-opacity="0"/>
		</clipPath>
	</defs>
	<g clip-path="url(#clip4_174)">
		<rect id="Ресурс 1 1" width="20.000000" height="20.000000" fill="#FFFFFF" fill-opacity="0"/>
		<g clip-path="url(#clip4_175)">
			<path id="Vector" d="M16.4119 13.4558C16.472 13.8435 16.3451 14.0077 16.2168 14.0077C16.0886 14.0077 15.9029 13.85 15.6958 13.5372C15.4888 13.2245 15.418 12.877 15.5182 12.6986C15.5559 12.6368 15.6168 12.5914 15.6882 12.572C15.7596 12.5525 15.836 12.5603 15.9016 12.5939C16.2422 12.718 16.3758 13.2233 16.4119 13.4558ZM14.5242 14.3062C14.9344 14.6409 15.0586 15.0388 14.8422 15.3192C14.7763 15.3977 14.6922 15.4601 14.5969 15.5013C14.5015 15.5426 14.3975 15.5616 14.2931 15.557C14.0643 15.5574 13.8426 15.4801 13.6666 15.3386C13.2952 15.0247 13.1857 14.5142 13.4288 14.2247C13.4825 14.1653 13.5495 14.1187 13.6248 14.0881C13.7 14.0576 13.7815 14.0443 13.863 14.049C14.1078 14.0569 14.3419 14.1479 14.5242 14.3062ZM13.8402 17.5367C15.6023 17.5367 17.514 18.1208 19.6314 19.9352C19.8425 20.1161 20.1244 19.8912 19.94 19.665C17.86 17.1259 15.9323 16.6412 14.0179 16.2329C11.6721 15.7314 10.4644 14.4535 9.61874 13.0514C9.45177 12.7722 9.37561 12.8214 9.36092 13.1807C9.34688 13.7131 9.3885 14.2456 9.48515 14.77C9.3903 14.77 9.29413 14.77 9.19928 14.77C7.99707 14.77 6.82188 14.4252 5.82228 13.7792C4.82269 13.1331 4.04361 12.2148 3.58354 11.1404C3.12349 10.066 3.00311 8.88379 3.23766 7.74329C3.47218 6.60278 4.0511 5.55505 4.90118 4.73279C5.75127 3.91052 6.83434 3.35059 8.01343 3.12366C9.19254 2.89673 10.4147 3.01318 11.5254 3.45825C12.6361 3.90332 13.5854 4.65686 14.2533 5.62378C14.9212 6.5907 15.2777 7.72754 15.2777 8.89038C15.2783 9.11877 15.2654 9.34705 15.239 9.57397C14.5986 9.49597 13.9515 9.48425 13.3085 9.53906C13.0774 9.55847 13.1108 9.66833 13.2845 9.69287C15.2884 10.0431 16.6751 11.2435 16.9903 13.4338C16.9915 13.4449 16.9962 13.4554 17.0038 13.4637C17.0115 13.4722 17.0216 13.4779 17.0329 13.4803C17.0441 13.4828 17.0559 13.4818 17.0665 13.4773C17.0771 13.4729 17.086 13.4655 17.0919 13.4558C18.1343 11.7703 18.5707 9.79834 18.333 7.84778C18.0953 5.89709 17.1969 4.07739 15.7779 2.67249C14.3589 1.26746 12.4991 0.356323 10.4886 0.0810547C8.47809 -0.194214 6.42993 0.181885 4.66359 1.15076C2.89726 2.11963 1.51205 3.62659 0.72406 5.43689C-0.0639496 7.24707 -0.210449 9.25867 0.307419 11.1578C0.825272 13.057 1.97838 14.7371 3.58685 15.9358C5.19533 17.1346 7.16873 17.7848 9.19928 17.7849C10.5419 17.7887 11.8791 17.5354 13.8402 17.5354L13.8402 17.5367Z" fill="#3E9CDC" fill-opacity="1.000000" fill-rule="nonzero"/>
		</g>
	</g>
</svg>
