<svg width="13.440643" height="17.525269" viewBox="0 0 13.4406 17.5253" fill="none" xmlns="http://www.w3.org/2000/svg" xmlns:xlink="http://www.w3.org/1999/xlink">
	<desc>
			Created with Pixso.
	</desc>
	<defs/>
	<path id="Vector" d="M0.000213623 8.69324C0.000213623 7.70923 0.0834045 7.08472 2.13846 5.56348C3.83984 4.30396 9.2934 0 9.2934 0L9.2934 7.18469L13.4406 7.18469L13.4406 17.5253L1.29553 17.5253C0.58313 17.5253 0 16.9469 0 16.2404L0.000213623 8.69336L0.000213623 8.69324Z" fill="#3E9CDC" fill-opacity="1.000000" fill-rule="evenodd"/>
	<path id="Vector" d="M9.2934 7.18457L9.2934 11.3475L1.67249 16.4961L11.3077 13.3872L11.3077 7.18457L9.2934 7.18457Z" fill="#000000" fill-opacity="0.200000" fill-rule="evenodd"/>
	<path id="Vector" d="M5.81082 6.96936C6.25653 6.44275 6.90738 6.25696 7.26477 6.55432C7.62216 6.85168 7.55072 7.51978 7.10504 8.04639C6.65967 8.57288 6.00854 8.75854 5.65115 8.46118C5.29376 8.16382 5.36539 7.49585 5.81082 6.96936L5.81082 6.96936Z" fill="#231F20" fill-opacity="1.000000" fill-rule="evenodd"/>
</svg>
