<svg width="18.076569" height="17.801514" viewBox="0 0 18.0766 17.8015" fill="none" xmlns="http://www.w3.org/2000/svg" xmlns:xlink="http://www.w3.org/1999/xlink">
	<desc>
			Created with Pixso.
	</desc>
	<defs/>
	<path id="Combined Shape" d="M8.99527 0C10.4055 0 11.7473 0.32312 12.9514 0.901123C13.1402 0.986328 13.3303 1.08826 13.5185 1.19031L12.6929 1.92163L11.4552 0.64624L9.32254 2.51648L8.06665 1.1731L4.14499 4.65894L6.65576 7.39648L5.6756 8.24646L8.15274 10.984L7.17245 11.8336L10.7159 15.7274L12.813 13.823L14.6371 15.8639C14.2756 16.136 13.88 16.4086 13.4505 16.6462C12.1431 17.3773 10.6292 17.8015 9.01266 17.8015C4.04141 17.8015 6.10352e-05 13.8066 6.10352e-05 8.89319C-0.0174866 4.01282 4.0246 0 8.99527 0ZM7.34381 8.34863L9.4939 6.44421L11.4207 8.56946L9.27017 10.4738L7.34381 8.34863ZM8.87503 12.0215L11.0076 10.1001L12.9514 12.2253L10.8012 14.1299L8.87503 12.0215ZM5.81393 4.72717L7.96338 2.82263L9.88974 4.948L7.73956 6.85242L5.81393 4.72717ZM9.75192 3.70667L11.3517 2.27844L12.7968 3.85974L11.1971 5.30481L9.75192 3.70667ZM12.6074 10.2528L14.2066 8.82458L15.6517 10.4225L14.0519 11.8516L12.6074 10.2528ZM14.0176 13.4668L15.6174 12.0382L17.0613 13.6195L15.4622 15.0643L14.0176 13.4668ZM14.6713 6.12109L15.7376 5.16882L16.7004 6.22339L15.6344 7.17529L14.6713 6.12109ZM13.2953 2.97546L14.3616 2.00647L15.3252 3.07751L14.2581 4.02966L13.2953 2.97546ZM16.03 9.26697L17.0962 8.3147L18.0766 9.36902L16.9933 10.3209L16.03 9.26697ZM11.2313 6.90344L12.8311 5.4751L14.2756 7.05615L12.6765 8.48474L11.2313 6.90344Z" fill="#3E9CDC" fill-opacity="1.000000" fill-rule="nonzero"/>
</svg>
