<svg width="15.000000" height="11.785767" viewBox="0 0 15 11.7858" fill="none" xmlns="http://www.w3.org/2000/svg" xmlns:xlink="http://www.w3.org/1999/xlink">
	<desc>
			Created with Pixso.
	</desc>
	<defs/>
	<path id="" d="M13.9286 10.4464C13.9286 10.5887 13.803 10.7142 13.6607 10.7142L1.33929 10.7142C1.19696 10.7142 1.07141 10.5887 1.07141 10.4464L1.07141 4.01782C1.24719 4.21875 1.43976 4.40295 1.64899 4.57031C2.84601 5.49109 4.05133 6.42859 5.21484 7.39954C5.84265 7.92688 6.62109 8.57141 7.49164 8.57141L7.5 8.57141L7.50836 8.57141C8.37891 8.57141 9.15735 7.92688 9.78516 7.39954C10.9487 6.42859 12.154 5.49109 13.351 4.57031C13.5602 4.40295 13.7528 4.21875 13.9286 4.01782L13.9286 10.4464ZM13.9286 1.64905C13.9286 2.36047 13.2422 3.28967 12.6981 3.71655C11.5765 4.59546 10.4548 5.48267 9.34149 6.37C8.89789 6.72986 8.0943 7.5 7.50836 7.5L7.5 7.5L7.49164 7.5C6.9057 7.5 6.10211 6.72986 5.65851 6.37C4.54523 5.48267 3.42352 4.59546 2.30188 3.71655C1.54852 3.12219 1.07141 2.29358 1.07141 1.33923C1.07141 1.19702 1.19696 1.07141 1.33929 1.07141L13.6607 1.07141C13.9788 1.07141 13.9286 1.4397 13.9286 1.64905ZM15 1.33923C15 0.602661 14.3973 0 13.6607 0L1.33929 0C0.602661 0 0 0.602661 0 1.33923L0 10.4464C0 11.183 0.602661 11.7858 1.33929 11.7858L13.6607 11.7858C14.3973 11.7858 15 11.183 15 10.4464L15 1.33923Z" fill="#3E9CDC" fill-opacity="1.000000" fill-rule="nonzero"/>
</svg>
