<svg width="30.857147" height="30.857178" viewBox="0 0 30.8571 30.8572" fill="none" xmlns="http://www.w3.org/2000/svg" xmlns:xlink="http://www.w3.org/1999/xlink">
	<desc>
			Created with Pixso.
	</desc>
	<defs/>
	<path id="" d="M25.7143 23.1429C25.7143 24.5491 24.5491 25.7143 23.1429 25.7143C21.7366 25.7143 20.5714 24.5491 20.5714 23.1429C20.5714 21.7366 21.7366 20.5714 23.1429 20.5714C24.5491 20.5714 25.7143 21.7366 25.7143 23.1429ZM10.2857 7.71429C10.2857 9.12054 9.12054 10.2857 7.71429 10.2857C6.30804 10.2857 5.14286 9.12054 5.14286 7.71429C5.14286 6.30804 6.30804 5.14288 7.71429 5.14288C9.12054 5.14288 10.2857 6.30804 10.2857 7.71429ZM30.8571 23.1429C30.8571 18.8839 27.4018 15.4286 23.1429 15.4286C18.8839 15.4286 15.4286 18.8839 15.4286 23.1429C15.4286 27.4018 18.8839 30.8572 23.1429 30.8572C27.4018 30.8572 30.8571 27.4018 30.8571 23.1429ZM28.9286 1.28571C28.9286 0.582581 28.346 0 27.6429 0L24.4286 0C24.0268 0 23.6451 0.200867 23.404 0.522339L2.18974 28.808C2.02901 29.029 1.92857 29.2902 1.92857 29.5714C1.92857 30.2745 2.51116 30.8572 3.21429 30.8572L6.42857 30.8572C6.83036 30.8572 7.21205 30.6562 7.45312 30.3348L28.6674 2.04913C28.8281 1.82812 28.9286 1.56696 28.9286 1.28571ZM15.4286 7.71429C15.4286 3.45538 11.9732 0 7.71429 0C3.45536 0 0 3.45538 0 7.71429C0 11.9732 3.45536 15.4286 7.71429 15.4286C11.9732 15.4286 15.4286 11.9732 15.4286 7.71429Z" fill="#FFFFFF" fill-opacity="1.000000" fill-rule="nonzero"/>
</svg>
