<svg width="55.000000" height="55.000000" viewBox="0 0 55 55" fill="none" xmlns="http://www.w3.org/2000/svg" xmlns:xlink="http://www.w3.org/1999/xlink">
	<desc>
			Created with Pixso.
	</desc>
	<defs>
		<clipPath id="clip3_195">
			<rect id="Frame 5" width="55.000000" height="55.000000" fill="white" fill-opacity="0"/>
		</clipPath>
	</defs>
	<rect id="Frame 5" width="55.000000" height="55.000000" fill="#000000" fill-opacity="0"/>
	<g clip-path="url(#clip3_195)">
		<path id="Subtract" d="M8.86389 13.6497C8.86389 17.7449 12.1837 21.0648 16.2789 21.0648L16.2789 45.8367C16.2789 46.9014 17.1427 47.7653 18.2075 47.7653L45.2075 47.7653C46.2722 47.7653 47.136 46.9014 47.136 45.8367L47.136 22.6938C47.136 21.6291 46.5133 20.1425 45.77 19.3992L39.5021 13.1313C38.7588 12.388 37.2722 11.7653 36.2075 11.7653L23.4523 11.7653C22.6185 8.5827 19.7229 6.23474 16.2789 6.23474C12.1837 6.23474 8.86389 9.55457 8.86389 13.6497ZM21.2789 14.6498L17.2789 14.6498L17.2789 18.6498L15.2789 18.6498L15.2789 14.6498L11.2789 14.6498L11.2789 12.6498L15.2789 12.6498L15.2789 8.64978L17.2789 8.64978L17.2789 12.6498L21.2789 12.6498L21.2789 14.6498ZM23.6625 14.3367C23.397 17.2269 21.4728 19.6371 18.8503 20.6068L18.8503 45.1938L44.5646 45.1938L44.5646 24.6224L36.2075 24.6224C35.1427 24.6224 34.2789 23.7585 34.2789 22.6938L34.2789 14.3367L23.6625 14.3367ZM36.8503 14.4974C37.1918 14.6179 37.5334 14.7987 37.674 14.9393L43.9619 21.2273C44.1025 21.3679 44.2834 21.7094 44.4039 22.051L36.8503 22.051L36.8503 14.4974ZM23.9932 27.8367L23.9932 29.1224C23.9932 29.484 24.2744 29.7653 24.636 29.7653L38.7789 29.7653C39.1405 29.7653 39.4218 29.484 39.4218 29.1224L39.4218 27.8367C39.4218 27.475 39.1405 27.1938 38.7789 27.1938L24.636 27.1938C24.2744 27.1938 23.9932 27.475 23.9932 27.8367ZM38.7789 32.3367L24.636 32.3367C24.2744 32.3367 23.9932 32.6179 23.9932 32.9795L23.9932 34.2653C23.9932 34.6268 24.2744 34.9081 24.636 34.9081L38.7789 34.9081C39.1405 34.9081 39.4218 34.6268 39.4218 34.2653L39.4218 32.9795C39.4218 32.6179 39.1405 32.3367 38.7789 32.3367ZM24.636 37.4795L38.7789 37.4795C39.1405 37.4795 39.4218 37.7607 39.4218 38.1224L39.4218 39.4081C39.4218 39.7697 39.1405 40.051 38.7789 40.051L24.636 40.051C24.2744 40.051 23.9932 39.7697 23.9932 39.4081L23.9932 38.1224C23.9932 37.7607 24.2744 37.4795 24.636 37.4795Z" fill="#FFFFFF" fill-opacity="1.000000" fill-rule="evenodd"/>
	</g>
</svg>
