<svg width="36.000000" height="28.285706" viewBox="0 0 36 28.2857" fill="none" xmlns="http://www.w3.org/2000/svg" xmlns:xlink="http://www.w3.org/1999/xlink">
	<desc>
			Created with Pixso.
	</desc>
	<defs/>
	<path id="" d="M33.4286 25.0714C33.4286 25.413 33.1273 25.7143 32.7857 25.7143L3.21429 25.7143C2.87274 25.7143 2.57141 25.413 2.57141 25.0714L2.57141 9.64288C2.99329 10.125 3.45538 10.567 3.95758 10.9688C6.83038 13.1786 9.72321 15.4286 12.5156 17.7589C14.0223 19.0245 15.8906 20.5714 17.9799 20.5714L18 20.5714L18.0201 20.5714C20.1094 20.5714 21.9777 19.0245 23.4844 17.7589C26.2768 15.4286 29.1696 13.1786 32.0424 10.9688C32.5447 10.567 33.0067 10.125 33.4286 9.64288L33.4286 25.0714ZM33.4286 3.95758C33.4286 5.66516 31.7812 7.89508 30.4755 8.91962C27.7835 11.029 25.0915 13.1585 22.4196 15.288C21.3549 16.1518 19.4263 18 18.0201 18L18 18L17.9799 18C16.5737 18 14.6451 16.1518 13.5804 15.288C10.9085 13.1585 8.21649 11.029 5.52454 8.91962C3.71649 7.49329 2.57141 5.50446 2.57141 3.21429C2.57141 2.87274 2.87274 2.57141 3.21429 2.57141L32.7857 2.57141C33.5491 2.57141 33.4286 3.45538 33.4286 3.95758ZM36 3.21429C36 1.44641 34.5536 0 32.7857 0L3.21429 0C1.44641 0 0 1.44641 0 3.21429L0 25.0714C0 26.8393 1.44641 28.2857 3.21429 28.2857L32.7857 28.2857C34.5536 28.2857 36 26.8393 36 25.0714L36 3.21429Z" fill="#FFFFFF" fill-opacity="1.000000" fill-rule="nonzero"/>
</svg>
