<svg width="38.571411" height="25.714294" viewBox="0 0 38.5714 25.7143" fill="none" xmlns="http://www.w3.org/2000/svg" xmlns:xlink="http://www.w3.org/1999/xlink">
	<desc>
			Created with Pixso.
	</desc>
	<defs/>
	<path id="" d="M15.4286 18L15.4286 16.0714L18 16.0714L18 10.2857L17.9598 10.2857C17.6384 10.788 17.337 11.0089 16.8549 11.4308L15.308 9.82367L18.2812 7.07141L20.5714 7.07141L20.5714 16.0714L23.1429 16.0714L23.1429 18L15.4286 18ZM25.7143 12.8571C25.7143 9.20087 23.5045 4.5 19.2857 4.5C15.067 4.5 12.8571 9.20087 12.8571 12.8571C12.8571 16.5134 15.067 21.2143 19.2857 21.2143C23.5045 21.2143 25.7143 16.5134 25.7143 12.8571ZM36 18C33.1674 18 30.8571 20.3102 30.8571 23.1429L7.71429 23.1429C7.71429 20.3102 5.40399 18 2.57141 18L2.57141 7.71429C5.40399 7.71429 7.71429 5.40399 7.71429 2.57141L30.8571 2.57141C30.8571 5.40399 33.1674 7.71429 36 7.71429L36 18ZM38.5714 1.28571C38.5714 0.582581 37.9888 0 37.2857 0L1.28571 0C0.582581 0 0 0.582581 0 1.28571L0 24.4286C0 25.1317 0.582581 25.7143 1.28571 25.7143L37.2857 25.7143C37.9888 25.7143 38.5714 25.1317 38.5714 24.4286L38.5714 1.28571Z" fill="#FFFFFF" fill-opacity="1.000000" fill-rule="nonzero"/>
</svg>
