<svg width="17.142883" height="20.000000" viewBox="0 0 17.1429 20" fill="none" xmlns="http://www.w3.org/2000/svg" xmlns:xlink="http://www.w3.org/1999/xlink">
	<desc>
			Created with Pixso.
	</desc>
	<defs/>
	<path id="" d="M16.3839 4.24109L12.9018 0.758911C12.4888 0.345947 11.663 0 11.0714 0L1.07141 0C0.479919 0 0 0.479858 0 1.07141L0 18.9286C0 19.5201 0.479919 20 1.07141 20L16.0714 20C16.663 20 17.1429 19.5201 17.1429 18.9286L17.1429 6.07141C17.1429 5.47986 16.7969 4.65405 16.3839 4.24109ZM11.4286 1.51782C11.6183 1.58484 11.808 1.6853 11.8862 1.76343L15.3795 5.25671C15.4576 5.33484 15.558 5.52454 15.625 5.71423L11.4286 5.71423L11.4286 1.51782ZM15.7143 18.5714L1.42859 18.5714L1.42859 1.42859L10 1.42859L10 6.07141C10 6.66296 10.4799 7.14282 11.0714 7.14282L15.7143 7.14282L15.7143 18.5714ZM4.28571 8.92859L4.28571 9.64282C4.28571 9.84375 4.44196 10 4.64288 10L12.5 10C12.7009 10 12.8571 9.84375 12.8571 9.64282L12.8571 8.92859C12.8571 8.72766 12.7009 8.57141 12.5 8.57141L4.64288 8.57141C4.44196 8.57141 4.28571 8.72766 4.28571 8.92859ZM12.5 11.4286L4.64288 11.4286C4.44196 11.4286 4.28571 11.5848 4.28571 11.7858L4.28571 12.5C4.28571 12.7009 4.44196 12.8572 4.64288 12.8572L12.5 12.8572C12.7009 12.8572 12.8571 12.7009 12.8571 12.5L12.8571 11.7858C12.8571 11.5848 12.7009 11.4286 12.5 11.4286ZM12.5 14.2858L4.64288 14.2858C4.44196 14.2858 4.28571 14.442 4.28571 14.6428L4.28571 15.3572C4.28571 15.558 4.44196 15.7142 4.64288 15.7142L12.5 15.7142C12.7009 15.7142 12.8571 15.558 12.8571 15.3572L12.8571 14.6428C12.8571 14.442 12.7009 14.2858 12.5 14.2858Z" fill="#272733" fill-opacity="1.000000" fill-rule="nonzero"/>
</svg>
